<?xml version="1.0" encoding="utf-8"?>
<!-- Generator: Adobe Illustrator 22.0.0, SVG Export Plug-In . SVG Version: 6.00 Build 0)  -->
<svg version="1.1" id="图层_1" xmlns="http://www.w3.org/2000/svg" x="0px"
     y="0px"
     viewBox="0 0 1024 1024" style="enable-background:new 0 0 1024 1024;" xml:space="preserve">
<style type="text/css">
	.st0{fill:#CCDAFE;}
	.st1{fill:#A8BEEF;}
	.st2{fill:url(#SVGID_1_);}
	.st3{fill:url(#SVGID_2_);}
	.st4{fill:#3B6CE4;}
	.st5{fill:url(#SVGID_3_);}
	.st6{fill:#FF7F2A;}
	.st7{fill:url(#SVGID_4_);}
	.st8{fill:#FFFFFF;}
	.st9{fill:#C69767;}
	.st10{fill:#5D94FA;}
	.st11{fill:#EFBB81;}
	.st12{fill:#FDCACA;}
	.st13{fill:#7D1C1C;}
	.st14{fill:#B9D8ED;}
	.st15{fill:#353535;}
	.st16{fill:#274DA0;}
	.st17{fill:#DBEEFE;}
</style>
    <g>
	<g>
		<polygon class="st0" points="163.1,723.1 163.1,517.3 245.6,517.3 245.6,369.1 386.2,369.1 386.2,723.1 		"/>
        <g>
			<rect x="259.6" y="393.6" class="st1" width="28.8" height="23"/>
            <rect x="302.7" y="393.6" class="st1" width="28.8" height="23"/>
            <rect x="345.9" y="393.6" class="st1" width="28.8" height="23"/>
            <rect x="259.6" y="429.6" class="st1" width="28.8" height="23"/>
            <rect x="302.7" y="429.6" class="st1" width="28.8" height="23"/>
            <rect x="345.9" y="429.6" class="st1" width="28.8" height="23"/>
            <rect x="259.6" y="465.5" class="st1" width="28.8" height="23"/>
            <rect x="302.7" y="465.5" class="st1" width="28.8" height="23"/>
            <rect x="345.9" y="465.5" class="st1" width="28.8" height="23"/>
            <rect x="259.6" y="501.5" class="st1" width="28.8" height="23"/>
            <rect x="302.7" y="501.5" class="st1" width="28.8" height="23"/>
            <rect x="345.9" y="501.5" class="st1" width="28.8" height="23"/>
            <rect x="259.6" y="537.5" class="st1" width="28.8" height="23"/>
            <rect x="216.4" y="537.5" class="st1" width="28.8" height="23"/>
            <rect x="173.2" y="537.5" class="st1" width="28.8" height="23"/>
            <rect x="302.7" y="537.5" class="st1" width="28.8" height="23"/>
            <rect x="345.9" y="537.5" class="st1" width="28.8" height="23"/>
            <rect x="259.6" y="573.5" class="st1" width="28.8" height="23"/>
            <rect x="216.4" y="573.5" class="st1" width="28.8" height="23"/>
            <rect x="173.2" y="573.5" class="st1" width="28.8" height="23"/>
            <rect x="302.7" y="573.5" class="st1" width="28.8" height="23"/>
            <rect x="345.9" y="573.5" class="st1" width="28.8" height="23"/>
            <rect x="259.6" y="609.4" class="st1" width="28.8" height="23"/>
            <rect x="216.4" y="609.4" class="st1" width="28.8" height="23"/>
            <rect x="173.2" y="609.4" class="st1" width="28.8" height="23"/>
            <rect x="302.7" y="609.4" class="st1" width="28.8" height="23"/>
            <rect x="345.9" y="609.4" class="st1" width="28.8" height="23"/>
            <rect x="259.6" y="645.4" class="st1" width="28.8" height="23"/>
            <rect x="216.4" y="645.4" class="st1" width="28.8" height="23"/>
            <rect x="173.2" y="645.4" class="st1" width="28.8" height="23"/>
            <rect x="302.7" y="645.4" class="st1" width="28.8" height="23"/>
            <rect x="345.9" y="645.4" class="st1" width="28.8" height="23"/>
		</g>
	</g>
        <g>
		<polygon class="st0"
                 points="635.2,720.3 635.2,590.7 698.5,590.7 698.5,441.1 794.9,441.1 794.9,511.6 851,511.6 851,720.3 		"/>
            <g>
			<rect x="712.9" y="459.8" class="st1" width="28.8" height="23"/>
                <rect x="753.2" y="459.8" class="st1" width="28.8" height="23"/>
                <rect x="712.9" y="603.7" class="st1" width="28.8" height="23"/>
                <rect x="672.6" y="603.7" class="st1" width="28.8" height="23"/>
                <rect x="672.6" y="639.7" class="st1" width="28.8" height="23"/>
                <rect x="753.2" y="603.7" class="st1" width="28.8" height="23"/>
                <rect x="712.9" y="495.8" class="st1" width="28.8" height="23"/>
                <rect x="753.2" y="495.8" class="st1" width="28.8" height="23"/>
                <rect x="712.9" y="531.7" class="st1" width="28.8" height="23"/>
                <rect x="753.2" y="531.7" class="st1" width="28.8" height="23"/>
                <rect x="793.5" y="531.7" class="st1" width="28.8" height="23"/>
                <rect x="793.5" y="567.7" class="st1" width="28.8" height="23"/>
                <rect x="793.5" y="603.7" class="st1" width="28.8" height="23"/>
                <rect x="793.5" y="639.7" class="st1" width="28.8" height="23"/>
                <rect x="712.9" y="567.7" class="st1" width="28.8" height="23"/>
                <rect x="753.2" y="567.7" class="st1" width="28.8" height="23"/>
                <rect x="712.9" y="639.7" class="st1" width="28.8" height="23"/>
                <rect x="753.2" y="639.7" class="st1" width="28.8" height="23"/>
		</g>
	</g>
        <linearGradient id="SVGID_1_" gradientUnits="userSpaceOnUse" x1="503.9148" y1="628.252" x2="512.272"
                        y2="759.951">
		<stop offset="0" style="stop-color:#91B3FF"/>
            <stop offset="0.4022" style="stop-color:#6791F2"/>
            <stop offset="0.7939" style="stop-color:#3B6CE4"/>
	</linearGradient>
        <path class="st2" d="M92.6,757.7c0,0,164.1-131,411.6-131c233.1,0,427.4,131,427.4,131s-65.5-24.7-204.4-27.3
		c-76.3-1.4-132.4,24.5-225.9,24.5c-87.8,0-149.8-12.1-243.2-15.8C171.6,735.5,92.6,757.7,92.6,757.7z"/>
        <linearGradient id="SVGID_2_" gradientUnits="userSpaceOnUse" x1="519.6198" y1="625.2672" x2="523.6028"
                        y2="688.0345">
		<stop offset="0" style="stop-color:#91B3FF"/>
            <stop offset="0.2484" style="stop-color:#6795EC"/>
            <stop offset="0.7939" style="stop-color:#004CBF"/>
	</linearGradient>
        <path class="st3" d="M429.3,630.7c-5.5,3.8-8.6,8.1-8.6,12.5c0,17.1,44.8,30.9,100,30.9s100-13.9,100-30.9c0-2.2-0.8-4.4-2.3-6.6
		c-36.5-6.2-74.8-10-114.3-10C478.3,626.7,453.3,628.2,429.3,630.7z"/>

        <ellipse transform="matrix(0.9596 -0.2814 0.2814 0.9596 -182.3419 124.4769)" class="st4" cx="342.3" cy="697.2"
                 rx="46.8" ry="15.8"/>

        <ellipse transform="matrix(0.2923 -0.9563 0.9563 0.2923 -291.1956 1042.7183)" class="st4" cx="558.9" cy="718.1"
                 rx="12.2" ry="30.2"/>
        <g>
		<linearGradient id="SVGID_3_" gradientUnits="userSpaceOnUse" x1="744.0946" y1="656.0374" x2="707.1418"
                        y2="605.7522">
			<stop offset="0" style="stop-color:#EFBB81"/>
            <stop offset="0.5011" style="stop-color:#F79E57"/>
            <stop offset="1" style="stop-color:#FF7F2A"/>
		</linearGradient>
            <path class="st5" d="M749.9,634.7c4.9-5.1,7.4-11.8,6.4-18.6c-1.2-8.2-7.1-14.6-15.2-17.8c0.2-1.8,0.2-3.7-0.2-5.6
			c-1.9-9.1-10.8-15-19.8-13.1c-9,1.9-14.8,10.8-12.9,19.9c0.2,1.2,0.6,2.3,1.1,3.3c-6.9,5.4-10.9,13.4-9.7,21.6
			c0.6,3.8,2.1,7.2,4.5,10.1c-5.2,3.4-8.4,8-8.4,13c0,10.5,14,19,31.2,19c17.2,0,31.2-8.5,31.2-19
			C758,642.6,754.9,638.1,749.9,634.7z"/>
            <g>
			<g>
				<path class="st6" d="M726.2,693L726.2,693c-0.9-0.5-1.5-2.5-1.2-4.3c4.4-35.6,1.3-54.8-0.2-61.3c-0.4-1.6-0.1-3.4,0.6-4.4l0,0
					c0.9-1.3,2.1-0.7,2.6,1.4c1.8,8,5.1,28.9,0.4,66.1C728.1,692.4,727.1,693.6,726.2,693z"/>
			</g>
		</g>
	</g>
        <g>
		<linearGradient id="SVGID_4_" gradientUnits="userSpaceOnUse" x1="802.4249" y1="693.5665" x2="781.342"
                        y2="664.8769">
			<stop offset="0" style="stop-color:#EFBB81"/>
            <stop offset="0.5011" style="stop-color:#F79E57"/>
            <stop offset="1" style="stop-color:#FF7F2A"/>
		</linearGradient>
            <path class="st7" d="M805.7,681.4c2.8-2.9,4.2-6.7,3.7-10.6c-0.7-4.7-4.1-8.3-8.7-10.2c0.1-1,0.1-2.1-0.1-3.2
			c-1.1-5.2-6.2-8.5-11.3-7.5c-5.2,1.1-8.4,6.2-7.3,11.4c0.1,0.7,0.3,1.3,0.6,1.9c-4,3.1-6.2,7.6-5.5,12.3c0.3,2.2,1.2,4.1,2.6,5.8
			c-3,1.9-4.8,4.5-4.8,7.4c0,6,8,10.8,17.8,10.8s17.8-4.9,17.8-10.8C810.4,685.9,808.6,683.3,805.7,681.4z"/>
            <g>
			<g>
				<path class="st6" d="M792.2,714.7L792.2,714.7c-0.5-0.3-0.8-1.4-0.7-2.5c2.5-20.3,0.8-31.2-0.1-35c-0.2-0.9-0.1-1.9,0.3-2.5l0,0
					c0.5-0.8,1.2-0.4,1.5,0.8c1,4.5,2.9,16.5,0.2,37.7C793.3,714.3,792.8,715,792.2,714.7z"/>
			</g>
		</g>
	</g>
        <g>
		<circle class="st8" cx="467.8" cy="420.4" r="122"/>
            <g>
			<path class="st9" d="M475.3,392.6c0-8.5-5.4-15-15.1-15c-7.3,0-13.6,3.7-18.7,9.4l-10-9.1c7.6-8.6,17.9-14.8,30.7-14.8
				c17.9,0,30.4,10.2,30.4,28.3c0,22.5-27.5,30.9-24.9,53.9h-15.6C448.5,419.3,475.3,409.4,475.3,392.6z M448.3,471.2
				c0-7.3,5.1-12.7,11.9-12.7c6.6,0,11.9,5.4,11.9,12.7c0,7.3-5.3,12.4-11.9,12.4C453.4,483.5,448.3,478.4,448.3,471.2z"/>
		</g>
            <path class="st10" d="M652.4,579.4l-74.5-74.5c41.5-55,37.3-133.8-12.8-183.9c-54.8-54.8-143.9-54.8-198.7,0s-54.8,143.9,0,198.7
			c49.9,49.9,128.2,54.3,183.1,13.4l74.6,74.6L652.4,579.4z M394.7,491.4c-39.2-39.2-39.2-102.9,0-142.1s102.9-39.2,142.1,0
			c39.2,39.2,39.2,102.9,0,142.1C497.6,530.6,433.8,530.6,394.7,491.4z"/>
            <path class="st4" d="M639.7,633.2l-67.9-67.9c-5.1-5.1-5.1-13.3,0-18.4l19.8-19.8c5.1-5.1,13.3-5.1,18.4,0l67.9,67.9
			c10.5,10.5,10.5,27.6,0,38.2l0,0C667.3,643.7,650.2,643.7,639.7,633.2z"/>
            <g>
			<path class="st11" d="M478.1,389.7c0-8.5-5.4-15-15.1-15c-7.3,0-13.6,3.7-18.7,9.4l-10-9.1c7.6-8.6,17.9-14.8,30.7-14.8
				c17.9,0,30.4,10.2,30.4,28.3c0,22.5-27.5,30.9-24.9,53.9H455C451.3,416.5,478.1,406.6,478.1,389.7z M451.1,468.3
				c0-7.3,5.1-12.7,11.9-12.7c6.6,0,11.9,5.4,11.9,12.7s-5.3,12.4-11.9,12.4C456.2,480.7,451.1,475.6,451.1,468.3z"/>
		</g>
	</g>
        <g>
		<path class="st12" d="M366.8,484.9c4.2,9.1,1.8,19.2-5.4,22.5s-14.2-2.4-20.6-10.6c-6.2-7.9-1.8-19.2,5.4-22.5
			C353.4,471,362.6,475.7,366.8,484.9z"/>
            <path class="st13" d="M337.3,483.2c0,0-9.4-4.7-11.1,4.5c-1.5,8.3,4.8,9.1,7.8,9c2.2-0.1,4-1.7,4-1.7s2.5,10.9,12.1,10.8l-0.3-6.4
			c0-0.4-0.3-0.7-0.7-0.8c-0.6-0.2-1.3-0.5-1.9-1.3c-1.5-2.4-1.9-7.5,1.9-5.7c4.3,2.1,12-1.8,14.2-8.5s-3.6-10.1-9.2-11
			C347.4,470.9,337.9,474.7,337.3,483.2z"/>
            <path class="st14" d="M344.6,513.7c0,0-18.8,19.8-21.3,27.2c-4.5,13.4,19.6,22.4,19.6,22.4l3.9-5.6l-11.4-11.8
			c-1.2-1.2-1.2-3.1,0-4.3l14.2-15.2L344.6,513.7z"/>
            <path class="st12" d="M360.7,616.3c0,0,0,14.1-1.7,19.9s0,14.9,0,17.4c0,2.5,0.8,36.4,0.8,36.4l7.4,7.4c0,0,7.2,1.2,3.3-2.5
			c-3.9-3.6-5.8-3.3-5.8-9.1s4.1-34.8,5-38.9c0.8-4.1,1.7-30.6,1.7-30.6H360.7z"/>
            <path class="st15" d="M359.8,688.8c-0.2,0.8-0.9,3.6-0.4,9c0,0.1,0.1,0.2,0.2,0.2h0.9c0.1,0,0.2-0.1,0.2-0.2l0-2.7
			c0-0.2,0-2.4,1.5,0.1l1.5,2.1c0.3,0.5,0.8,0.7,1.4,0.7h8.6c0.4,0,0.8-0.4,0.6-0.9c-0.2-0.6-1.5-1.2-2.7-1.9
			c-1.4-0.8-2.3-1.6-2.6-1.8c0,0-0.1,0-0.1,0c-0.1,0.4-0.8,2.2-2.4,1c-1.4-1-2.9-2.8-4-4.1c-0.3-0.4-1.9-1.4-2.5-1.8
			C360,688.6,359.8,688.7,359.8,688.8z"/>
            <path class="st12" d="M343.2,616.5c0,0,0,14.1-1.7,19.9c-1.7,5.8,0,14.9,0,17.4s0.8,36.4,0.8,36.4l7.4,7.4c0,0,7.2,1.2,3.3-2.5
			c-3.9-3.6-5.8-3.3-5.8-9.1s4.1-34.8,5-38.9s1.7-30.6,1.7-30.6H343.2z"/>
            <polygon class="st12" points="352.5,505.1 361.4,504 361.4,516.9 353.6,516.9 		"/>
            <path class="st12" d="M403.1,521l4.4,1.2l1.3-6.4c0,0,5.2-3.8,4.5-9.4c-0.5-4.1-4.8-2.1-4.8-2.1l0.8-5.3c0.1-0.5-0.3-0.9-0.7-1
			l0,0c-0.4-0.1-0.8,0.2-0.9,0.7l-1.9,8c-0.1,0.3-0.4,0.5-0.6,0.4l0,0c-0.6-0.1-1.1,0.3-1.2,0.9c-0.5,2.1-0.9,5.5,0.1,6.4
			C404.5,514.7,403.1,521,403.1,521z"/>
            <path class="st16" d="M343.3,572.2h29.4c0,0,7.4,29.5,0.5,51.5h-34l1.2-15.1c0.1-5.8-1.4-8.7-2.9-16.2c-0.3-1.6-0.4-3.2-0.3-4.7
			C337.5,583.8,339.8,576.2,343.3,572.2z"/>
            <path class="st17" d="M351.6,512l13,0.9c4.3,0.3,8.3,2.3,10.7,5.4c4.7,6.1,8.7,19.7,12.9,23.2c5.6,4.6,12.5-18.9,14-23.2
			c0.1-0.4,0.5-0.7,1-0.7h5.8c0.7,0,1.2,0.7,1,1.4l-10.2,22c-4.9,9-5.9,11.4-10.9,10.8c-7.5-0.8-11.9-12.5-17-17.7c0,0,3,4.5,3,6.7
			c0,1.9-0.9,4.7-1.7,6.2c-0.7,1.3-1.9,3.8-1.6,5.2l4.7,28.4h-28.4v-7.5l-3.2,7.5h-7.7l3.8-23.1c0.8-2.9,1-9.7,1.1-12.8
			c0.2-8.5-2-22.2,0.7-28.2C345.2,510.6,351.6,512,351.6,512z"/>
            <path class="st15" d="M342.2,689c-0.2,0.8-0.9,3.6-0.4,9c0,0.1,0.1,0.2,0.2,0.2l0.9,0c0.1,0,0.2-0.1,0.2-0.2l0-2.7
			c0-0.2,0-2.4,1.5,0.1l1.5,2.1c0.3,0.5,0.8,0.7,1.4,0.7h8.6c0.4,0,0.8-0.4,0.6-0.9c-0.2-0.6-1.5-1.2-2.7-1.9
			c-1.4-0.8-2.3-1.6-2.6-1.8c0,0-0.1,0-0.1,0c-0.1,0.4-0.8,2.2-2.4,1c-1.4-1-2.9-2.8-4-4.1c-0.3-0.4-1.9-1.4-2.5-1.8
			C342.4,688.8,342.3,688.9,342.2,689z"/>
            <path class="st14" d="M373.2,536.4c0,0-1.3-2.8-5.4-6.6c0,0,4.7,3,6,6.6l-1.4-1.8L373.2,536.4z"/>
            <path class="st14" d="M371.5,552.3c0,0-2,4-6,4.4c0,0,4.9,1,6.4-1.9L371.5,552.3z"/>
	</g>
</g>
</svg>
